<?xml version="1.0" encoding="UTF-8" standalone="no"?>
<svg
   xmlns:dc="http://purl.org/dc/elements/1.1/"
   xmlns:cc="http://creativecommons.org/ns#"
   xmlns:rdf="http://www.w3.org/1999/02/22-rdf-syntax-ns#"
   xmlns:svg="http://www.w3.org/2000/svg"
   xmlns="http://www.w3.org/2000/svg"
   xmlns:sodipodi="http://sodipodi.sourceforge.net/DTD/sodipodi-0.dtd"
   xmlns:inkscape="http://www.inkscape.org/namespaces/inkscape"
   viewBox="0 0 448 512"
   version="1.1"
   id="svg3725"
   sodipodi:docname="favicon.ico.svg"
   inkscape:version="0.92.3 (2405546, 2018-03-11)"
   inkscape:export-filename="C:\Users\diego\Desktop\favicon.png"
   inkscape:export-xdpi="12.024856"
   inkscape:export-ydpi="12.024856">
  <metadata
     id="metadata3731">
    <rdf:RDF>
      <cc:Work
         rdf:about="">
        <dc:format>image/svg+xml</dc:format>
        <dc:type
           rdf:resource="http://purl.org/dc/dcmitype/StillImage" />
        <dc:title />
      </cc:Work>
    </rdf:RDF>
  </metadata>
  <defs
     id="defs3729" />
  <sodipodi:namedview
     pagecolor="#ffffff"
     bordercolor="#666666"
     borderopacity="1"
     objecttolerance="10"
     gridtolerance="10"
     guidetolerance="10"
     inkscape:pageopacity="0"
     inkscape:pageshadow="2"
     inkscape:window-width="1920"
     inkscape:window-height="1017"
     id="namedview3727"
     showgrid="false"
     inkscape:zoom="1.65625"
     inkscape:cx="1.2075436"
     inkscape:cy="278.86375"
     inkscape:window-x="-8"
     inkscape:window-y="-8"
     inkscape:window-maximized="1"
     inkscape:current-layer="svg3725" />
  <path
     style="fill:#008080;stroke-width:0.60377359"
     d="M 38.037736,509.60898 C 20.413286,505.86606 6.416296,492.32417 1.626716,474.38184 L 0.30188596,469.41886 V 255.07924 40.739623 L 1.645786,35.701239 C 6.147836,18.822697 18.164376,6.363099 35.018866,1.0976813 l 4.5283,-1.414662 H 207.99999 376.45282 l 4.5283,1.414662 c 16.71674,5.2223817 28.75024,17.6065987 33.31073,34.2815457 1.22235,4.469382 1.3166,6.424679 1.5608,32.379259 l 0.25989,27.62265 H 427.433 c 10.68695,0 11.46937,0.0787 13.98146,1.405364 1.74727,0.9228 3.28297,2.40943 4.47232,4.32944 l 1.81132,2.92407 v 22.38753 c 0,12.31315 -0.20769,23.12974 -0.46155,24.03685 -0.67209,2.4016 -3.99117,5.92066 -6.77855,7.18693 -2.0538,0.93302 -4.08874,1.10152 -13.43914,1.11277 l -11.01887,0.0133 v 32.30189 32.30188 h 11.37674 c 10.74586,0 11.52429,0.0779 14.03773,1.40537 1.74727,0.9228 3.28297,2.40943 4.47232,4.32944 l 1.81132,2.92407 v 22.38754 c 0,12.31315 -0.20769,23.12974 -0.46155,24.03685 -0.67209,2.4016 -3.99117,5.92066 -6.77855,7.18693 -2.0538,0.93302 -4.08874,1.10152 -13.43914,1.11277 l -11.01887,0.0133 v 32.30189 32.30188 h 11.37674 c 10.74586,0 11.52429,0.0779 14.03773,1.40537 1.74727,0.9228 3.28297,2.40943 4.47232,4.32944 l 1.81132,2.92407 v 22.38754 c 0,12.31315 -0.20769,23.12974 -0.46155,24.03685 -0.67209,2.4016 -3.99117,5.92066 -6.77855,7.18693 -2.05221,0.9323 -4.08679,1.10153 -13.37888,1.11277 l -10.9586,0.0133 -0.26918,27.62264 c -0.25097,25.75475 -0.35543,27.93902 -1.54484,32.30127 -2.28159,8.36796 -6.59318,15.85414 -12.57783,21.8388 -6.09956,6.09956 -13.31455,10.30512 -21.9551,12.79745 -3.79041,1.09332 -9.60905,1.13593 -170.26415,1.24669 -158.305284,0.10906 -166.587494,0.0619 -171.471684,-0.9753 z M 302.55909,382.7689 c 7.03796,-1.32486 13.27528,-5.90656 16.01655,-11.76513 1.36255,-2.912 1.41261,-3.55321 1.41422,-18.11321 0.002,-17.66394 -0.68931,-21.82109 -5.12048,-30.79406 -10.14025,-20.5336 -32.47596,-33.92075 -58.5675,-35.10307 l -7.84906,-0.35567 -7.24528,2.43345 c -12.99061,4.36311 -23.60142,5.90266 -37.11596,5.38526 -10.48813,-0.40153 -19.29553,-2.01964 -29.29914,-5.38285 l -7.24528,-2.43586 -7.84906,0.35567 c -26.09154,1.18232 -48.42725,14.56947 -58.5675,35.10307 -4.431166,8.97297 -5.122426,13.13012 -5.120476,30.79406 0.002,14.67734 0.0418,15.18059 1.45531,18.21639 2.604846,5.5946 8.910046,10.3292 15.467566,11.61464 3.91195,0.76683 185.56306,0.81217 189.62609,0.0473 z M 217.51035,254.48652 c 25.57142,-3.85447 46.09307,-22.40941 52.76604,-47.70917 1.36115,-5.16062 1.6007,-7.35341 1.64899,-15.09434 0.0593,-9.50369 -0.44429,-13.01846 -2.98443,-20.83019 -4.97021,-15.28491 -16.07574,-28.57255 -30.45039,-36.43353 -5.17184,-2.82828 -15.43034,-6.19454 -21.32671,-6.99821 -33.75279,-4.60046 -64.38412,16.77989 -72.09124,50.31894 -0.68843,2.99583 -0.97935,7.09452 -0.96821,13.6411 0.0139,8.16532 0.21965,10.12828 1.6138,15.39623 3.76211,14.21549 12.11435,26.79017 23.48564,35.3587 14.08074,10.61015 31.05727,14.95052 48.30651,12.35047 z"
     id="path3733"
     inkscape:connector-curvature="0" />
  <rect
     style="fill:#008080"
     id="rect3747"
     width="286.79245"
     height="292.22641"
     x="67.622643"
     y="99.622643" />
  <path
     inkscape:connector-curvature="0"
     d="m 331.97484,349.16187 v 10.02935 c 0,16.61738 -13.47067,30.08805 -30.08805,30.08805 H 61.18238 c -16.61738,0 -30.088051,-13.47067 -30.088051,-30.08805 v -160.4696 c 0,-16.61738 13.470671,-30.08805 30.088051,-30.08805 h 10.02935 v 130.38155 c 0,27.65092 22.495832,50.14675 50.14675,50.14675 z m 60.1761,-50.14675 v -160.4696 c 0,-16.61738 -13.47067,-30.08805 -30.08805,-30.08805 H 121.35848 c -16.61738,0 -30.08805,13.47067 -30.08805,30.08805 v 160.4696 c 0,16.61738 13.47067,30.08805 30.08805,30.08805 h 240.70441 c 16.61738,0 30.08805,-13.47067 30.08805,-30.08805 z m -200.587,-130.38155 c 0,16.61738 -13.47068,30.08805 -30.08806,30.08805 -16.61738,0 -30.08805,-13.47067 -30.08805,-30.08805 0,-16.61738 13.47067,-30.08805 30.08805,-30.08805 16.61738,0 30.08806,13.47067 30.08806,30.08805 z m -60.17611,90.26415 34.79871,-34.79871 c 2.93735,-2.93735 7.70004,-2.93735 10.63801,0 l 24.76874,24.76936 84.94546,-84.94546 c 2.93735,-2.93735 7.70003,-2.93735 10.63801,0 l 54.85678,54.85741 v 70.20545 H 131.38783 Z"
     id="path3759"
     style="fill:#ffffff;stroke-width:0.62683439" />
</svg>
